<?xml version="1.0" standalone="no"?>
<!DOCTYPE svg PUBLIC "-//W3C//DTD SVG 20010904//EN"
 "http://www.w3.org/TR/2001/REC-SVG-20010904/DTD/svg10.dtd">
<svg version="1.0" xmlns="http://www.w3.org/2000/svg"
 width="512.000000pt" height="512.000000pt" viewBox="0 0 512.000000 512.000000"
 preserveAspectRatio="xMidYMid meet">

<g transform="translate(0.000000,512.000000) scale(0.100000,-0.100000)"
fill="#000000" stroke="none">
<path d="M4100 4866 c-93 -67 -243 -151 -540 -301 -168 -84 -354 -186 -413
-225 -180 -119 -344 -289 -446 -464 -51 -88 -105 -221 -97 -242 13 -33 40 -5
90 91 129 252 266 406 499 562 54 36 236 135 405 219 169 84 356 182 416 218
60 36 111 66 113 66 8 0 2 -74 -13 -161 -31 -178 -96 -320 -192 -418 -32 -32
-70 -61 -87 -65 -48 -12 -381 -134 -485 -178 -305 -129 -562 -303 -712 -483
l-62 -75 -13 75 c-28 166 -112 321 -250 459 -97 98 -228 193 -453 331 -411
252 -456 292 -572 511 -30 55 -60 99 -68 99 -56 0 -123 -240 -124 -445 0 -124
4 -145 49 -262 6 -15 1 -15 -47 3 -97 37 -190 92 -239 142 -30 30 -55 47 -66
45 -26 -5 -45 -103 -38 -195 l5 -72 -43 15 c-23 8 -59 26 -79 41 -61 42 -72
29 -64 -72 4 -47 15 -116 25 -154 l18 -69 -34 -5 c-25 -4 -50 2 -96 24 -94 44
-169 37 -222 -21 -19 -21 -20 -38 -23 -579 -1 -306 1 -892 5 -1303 l8 -748 30
-29 c54 -53 1135 -597 1537 -775 333 -146 461 -187 644 -206 175 -18 311 5
554 93 289 105 661 274 1090 497 343 179 633 341 662 373 15 15 30 43 33 60 3
18 14 331 25 697 11 366 22 748 25 850 17 574 24 1009 15 1045 -14 61 -41 78
-120 73 -47 -3 -90 -15 -155 -43 -77 -33 -146 -47 -161 -32 -2 2 12 32 31 68
48 89 75 179 75 254 0 56 -2 63 -22 68 -15 4 -41 -5 -80 -30 -33 -19 -61 -33
-64 -30 -2 2 1 17 7 33 20 52 38 176 28 201 -13 34 -33 29 -111 -32 -62 -49
-245 -151 -255 -142 -2 2 12 37 31 78 85 185 151 514 116 580 -15 27 -38 23
-90 -15z m-2770 -281 c90 -116 202 -203 500 -385 278 -171 328 -206 431 -309
97 -97 156 -190 193 -303 37 -109 33 -117 -22 -51 -182 218 -482 383 -962 528
-102 31 -195 60 -207 65 -27 11 -78 109 -94 177 -25 111 -7 305 41 428 l11 30
34 -63 c18 -35 52 -87 75 -117z m2996 -338 c-9 -30 -31 -76 -49 -103 -30 -43
-42 -51 -102 -71 -37 -13 -133 -37 -213 -53 -482 -101 -769 -213 -1025 -403
-87 -64 -216 -190 -257 -250 -16 -24 -33 -37 -47 -37 -13 0 -23 3 -23 6 0 15
136 167 198 222 225 199 484 333 964 497 244 83 424 161 518 222 25 17 47 29
48 27 2 -1 -3 -27 -12 -57z m-3346 -102 c71 -36 187 -75 444 -150 397 -115
678 -252 847 -414 l64 -61 -110 66 c-357 213 -799 381 -1250 475 l-155 33 0
78 0 78 47 -36 c25 -19 77 -51 113 -69z m3460 -86 c-18 -69 -68 -166 -97 -188
-23 -19 -40 -21 -148 -21 -409 0 -797 -110 -1139 -322 -84 -52 -228 -161 -260
-197 -20 -22 -56 -29 -56 -10 0 35 218 225 361 314 235 146 407 208 814 294
229 49 355 87 455 140 41 21 76 37 78 36 2 -2 -2 -23 -8 -46z m-3564 -68 c262
-49 367 -75 579 -145 332 -111 680 -285 945 -474 l65 -47 -30 -6 c-55 -12 -63
-9 -120 37 -156 128 -409 268 -629 349 -237 87 -562 150 -846 163 l-154 7 -17
55 c-25 85 -31 112 -21 106 5 -3 107 -23 228 -45z m235 -221 c430 -60 796
-202 1102 -428 l88 -65 -29 -19 -30 -18 -98 66 c-267 180 -625 304 -967 335
-116 11 -131 15 -297 81 -96 39 -177 73 -180 75 -10 11 278 -8 411 -27z m-573
-32 c145 -67 151 -84 64 -180 -44 -49 -118 -87 -183 -95 -76 -9 -79 -4 -79
155 0 198 13 206 198 120z m4229 22 c16 -31 18 -253 3 -281 -13 -24 -68 -25
-133 -3 -78 27 -177 129 -177 183 0 18 20 32 113 77 128 61 172 67 194 24z
m-442 1 c-6 -4 -59 -27 -120 -49 -102 -38 -119 -41 -240 -46 -220 -9 -426 -59
-625 -152 -97 -46 -270 -156 -304 -192 -10 -12 -48 -31 -83 -43 -52 -17 -70
-19 -90 -10 -24 11 -24 11 32 57 268 219 645 380 1005 429 107 15 439 20 425
6z m-495 -190 c-25 -15 -583 -202 -592 -199 -16 6 196 105 290 137 90 30 256
69 297 70 16 0 17 -1 5 -8z m-2337 -55 c73 -19 176 -51 228 -72 97 -38 229
-101 229 -109 0 -2 -105 31 -232 75 -421 143 -480 171 -225 106z m-88 -431
c226 -57 410 -236 447 -435 32 -170 -75 -350 -240 -404 -72 -24 -91 -49 -107
-145 -8 -45 -20 -91 -25 -102 -20 -36 -81 -47 -93 -16 -2 7 -1 38 3 70 4 41 3
61 -6 68 -20 17 -30 4 -43 -55 -7 -30 -19 -60 -26 -66 -16 -13 -66 -5 -76 12
-4 6 -4 47 -1 93 3 57 1 84 -7 89 -22 14 -39 -14 -46 -74 -10 -82 -21 -96 -68
-81 -44 15 -50 32 -45 132 3 64 1 74 -15 77 -18 4 -20 1 -37 -65 -9 -36 -15
-43 -36 -43 -32 0 -48 39 -41 101 6 53 -14 105 -88 224 -25 40 -52 93 -61 119
-48 140 37 347 178 437 117 75 288 101 433 64z m2730 -180 c141 -37 251 -116
334 -240 60 -90 86 -158 107 -278 42 -242 -39 -512 -215 -709 -80 -90 -250
-183 -408 -224 -180 -47 -401 -21 -536 62 -106 66 -191 177 -234 308 -24 72
-27 97 -27 216 0 110 4 151 22 220 87 323 320 571 600 640 98 24 274 26 357 5z
m-1695 -266 c103 -26 230 -22 329 10 48 15 68 17 78 9 9 -7 13 -45 13 -135 0
-117 -1 -125 -24 -148 -64 -64 -284 -87 -421 -45 -113 35 -115 39 -115 195 0
72 3 135 7 139 4 4 17 5 28 2 11 -3 58 -15 105 -27z m-1219 -823 c163 -75 205
-98 207 -115 5 -33 -24 -36 -97 -11 -90 31 -287 125 -328 156 -28 21 -31 28
-23 45 6 10 17 19 24 19 8 0 105 -42 217 -94z m-167 -166 c121 -59 291 -135
376 -170 169 -68 180 -74 180 -101 0 -32 -36 -31 -137 7 -182 68 -580 251
-665 305 -49 32 -57 46 -36 67 18 18 42 8 282 -108z m-606 -122 c57 -29 135
-114 150 -165 7 -22 12 -72 12 -111 0 -103 -11 -107 -139 -42 -59 29 -105 59
-112 72 -12 22 -14 241 -3 260 9 14 46 8 92 -14z m4250 0 c8 -8 12 -51 12
-129 0 -143 -3 -147 -129 -209 -101 -49 -118 -48 -133 6 -11 36 -2 124 16 169
20 48 82 113 141 146 55 32 75 35 93 17z m-3686 -103 c84 -42 221 -104 303
-138 124 -52 151 -67 153 -85 8 -56 -55 -38 -364 102 -213 98 -274 135 -274
165 0 19 8 31 21 31 4 0 77 -34 161 -75z m1374 -346 c106 -38 267 -37 407 2
64 18 67 12 67 -128 0 -139 -7 -157 -76 -182 -125 -47 -249 -51 -377 -11 -105
33 -107 36 -107 194 0 98 3 136 13 139 6 3 12 6 13 6 0 1 27 -8 60 -20z"/>
<path d="M420 3655 c-16 -20 -5 -62 19 -70 42 -13 72 25 51 65 -13 24 -52 27
-70 5z"/>
<path d="M4626 3654 c-21 -20 -20 -37 2 -57 33 -30 72 -15 72 28 0 42 -44 59
-74 29z"/>
<path d="M1105 2867 c-95 -37 -142 -102 -132 -183 6 -54 34 -89 95 -116 35
-16 41 -22 31 -34 -15 -18 -67 -18 -112 1 -46 19 -57 19 -57 0 0 -26 74 -67
123 -67 170 -3 314 295 190 392 -29 23 -90 26 -138 7z"/>
<path d="M1440 2722 c-31 -32 -51 -64 -59 -95 -25 -89 7 -191 76 -244 31 -24
46 -28 97 -28 48 0 61 3 61 15 0 10 -14 17 -41 20 -47 7 -94 34 -94 55 0 11
11 13 48 9 84 -9 150 43 159 128 6 55 -19 110 -72 156 -29 26 -44 32 -82 32
-43 0 -51 -4 -93 -48z"/>
<path d="M1250 2498 c-31 -51 -46 -106 -32 -120 9 -9 15 -9 24 0 17 17 28 15
28 -5 1 -10 7 -29 14 -42 13 -23 14 -24 24 -5 17 32 26 158 13 183 -17 31 -48
26 -71 -11z"/>
<path d="M3999 2788 c17 -29 61 -108 97 -174 l66 -122 56 14 c32 7 94 21 140
30 48 10 82 22 82 29 0 20 -53 87 -109 137 -83 75 -234 138 -329 138 l-34 0
31 -52z"/>
<path d="M3763 2809 c-128 -44 -251 -131 -339 -241 -50 -62 -104 -147 -104
-163 0 -8 230 0 291 11 l36 6 87 200 c48 110 86 201 84 203 -2 1 -27 -6 -55
-16z"/>
<path d="M3819 2618 c-58 -132 -72 -174 -61 -176 8 -2 65 3 127 12 61 9 119
14 129 10 19 -7 33 -51 19 -65 -5 -5 -79 -19 -164 -30 -84 -12 -159 -27 -165
-33 -6 -6 -53 -117 -104 -246 -104 -264 -132 -341 -126 -348 3 -3 266 211 330
269 5 5 -12 18 -40 29 -59 26 -84 47 -84 72 0 39 32 35 176 -23 30 -12 33 -10
160 86 71 54 135 104 143 111 11 10 4 30 -44 121 -95 179 -209 383 -215 383
-3 0 -39 -78 -81 -172z"/>
<path d="M4287 2440 c-43 -10 -80 -19 -82 -21 -1 -2 29 -71 69 -154 40 -82 89
-189 111 -237 21 -48 42 -85 46 -82 14 8 58 158 70 234 10 67 7 235 -5 247 -2
3 -34 -21 -71 -52 -45 -38 -74 -55 -88 -53 -39 5 -32 37 19 89 55 56 53 57
-69 29z"/>
<path d="M3495 2318 c-38 -5 -77 -11 -85 -14 -8 -3 22 -21 70 -43 47 -21 86
-37 87 -37 1 1 11 25 22 54 l21 52 -23 -1 c-12 -1 -53 -6 -92 -11z"/>
<path d="M3256 2223 c-11 -68 -6 -217 9 -281 23 -95 101 -237 116 -210 4 7 26
65 49 128 23 63 55 151 71 194 16 43 28 81 25 83 -10 10 -240 123 -251 123 -7
0 -15 -17 -19 -37z"/>
<path d="M4115 2148 c-49 -38 -100 -79 -113 -92 l-23 -22 187 -77 c103 -43
189 -75 192 -72 5 5 -133 314 -146 327 -4 3 -47 -25 -97 -64z"/>
<path d="M3764 1868 c-77 -62 -173 -143 -214 -179 l-73 -66 46 -27 c108 -64
230 -86 360 -66 166 25 293 87 406 198 54 53 62 65 49 73 -8 5 -76 33 -149 63
-74 30 -168 68 -209 85 -41 17 -75 31 -76 31 0 0 -63 -51 -140 -112z"/>
<path d="M428 1409 c-22 -13 -24 -62 -2 -79 24 -21 68 -1 72 31 3 27 -20 59
-41 59 -7 0 -20 -5 -29 -11z"/>
<path d="M4572 1364 c-39 -27 -23 -84 24 -84 46 0 59 60 19 86 -18 12 -24 11
-43 -2z"/>
</g>
</svg>
